<svg width="122" height="121" viewBox="0 0 122 121" fill="none" xmlns="http://www.w3.org/2000/svg">
<g clip-path="url(#clip0_1_19)">
<path d="M60.5001 120.999C52.4102 121.015 44.4004 119.398 36.9503 116.245C29.7611 113.209 23.2292 108.805 17.7179 103.28C12.1931 97.7688 7.7902 91.2381 4.75306 84.0499C1.59995 76.5994 -0.0166027 68.5893 0.000128559 60.4991C-0.0161936 52.4093 1.60035 44.3995 4.75306 36.9493C7.79045 29.7609 12.1937 23.2302 17.7189 17.7193C23.2301 12.1935 29.762 7.78973 36.9513 4.75301C44.4013 1.60066 52.4106 -0.0161645 60.5001 -0.000896904C68.59 -0.0163814 76.5996 1.60045 84.0499 4.75301C91.239 7.78923 97.7706 12.1927 103.281 17.7183C108.807 23.2292 113.21 29.7599 116.247 36.9483C119.4 44.3989 121.017 52.4089 121 60.4991C121.016 68.5882 119.399 76.5972 116.247 84.047C113.21 91.2355 108.806 97.7662 103.28 103.277C97.7692 108.802 91.2377 113.205 84.049 116.242C76.5992 119.396 68.5899 121.014 60.5001 120.999ZM62.0851 54.3741C61.5758 54.3726 61.0679 54.4196 60.5675 54.5142C60.2583 54.5699 59.9541 54.6509 59.6583 54.7569C58.9972 55.0322 58.3581 55.3583 57.7472 55.732L57.7286 55.7423C57.0924 56.085 56.4899 56.4864 55.9288 56.942C55.6904 57.1456 55.4689 57.3683 55.2667 57.608C54.0041 59.2165 53.1927 61.1323 52.9152 63.1583C52.7102 64.2713 52.5153 65.343 52.3263 66.379L52.2472 66.8131C51.8152 69.1841 51.4469 71.1821 51.0109 73.4981C50.9315 73.7941 50.8507 74.094 50.7687 74.398C49.4987 79.065 48.0615 84.3563 51.3585 88.5133C53.0096 90.1977 55.2525 91.1716 57.6105 91.2281C58.454 91.2255 59.2915 91.0932 60.0949 90.836C60.3603 90.7406 60.6162 90.6192 60.8576 90.4732C62.1043 89.6772 63.3058 88.8125 64.4572 87.8839C67.0714 85.8004 69.8199 83.892 72.6857 82.171L73.1163 81.9249C76.0639 80.2884 79.1156 78.8473 82.2521 77.6109H82.2628C83.894 77.0405 85.4548 76.2853 86.9142 75.3599C88.0624 74.2557 88.8885 72.8602 89.3038 71.3223C89.7192 69.7844 89.7087 68.1621 89.2726 66.63C87.3296 61.661 82.0287 60.2609 77.3527 59.0299L76.4533 58.7921C75.2443 58.3631 74.1048 57.956 72.8478 57.505C70.8598 56.793 68.805 56.0571 66.548 55.2711C65.1201 54.7288 63.611 54.4317 62.0841 54.3922L62.0851 54.3741ZM38.506 56.7872C37.3007 56.7887 36.1173 57.1065 35.0734 57.7091C34.2908 58.1593 33.605 58.7601 33.0558 59.4766C32.5066 60.1932 32.1046 61.0112 31.8732 61.8839C31.6372 62.7554 31.5764 63.6655 31.6945 64.5606C31.8126 65.4558 32.1068 66.3186 32.5607 67.0992C33.1665 68.1438 34.0364 69.011 35.0822 69.6148C36.128 70.2186 37.314 70.5378 38.5216 70.5401C39.7256 70.5361 40.9073 70.2178 41.9503 69.6163C43.5283 68.7032 44.6794 67.2014 45.1515 65.4405C45.6236 63.6796 45.3775 61.8032 44.4679 60.2232C43.8622 59.1794 42.9936 58.3126 41.9484 57.7096C40.9031 57.1065 39.7177 56.7881 38.5109 56.7862L38.506 56.7872ZM43.7199 41.0733C42.5148 41.0747 41.3317 41.3925 40.2882 41.9952C39.5052 42.4446 38.819 43.0448 38.2697 43.7613C37.7204 44.4778 37.3187 45.2962 37.088 46.169C36.8521 47.0406 36.7912 47.9501 36.9093 48.8453C37.0274 49.7405 37.3226 50.6033 37.7765 51.3839C38.3822 52.4285 39.2511 53.296 40.297 53.8995C41.3429 54.503 42.529 54.8217 43.7365 54.8233C44.9415 54.8228 46.1247 54.5048 47.1681 53.9019C48.7456 52.9889 49.8968 51.4873 50.3683 49.7266C50.8398 47.966 50.5928 46.0905 49.6827 44.5113C49.0756 43.4629 48.2035 42.5926 47.1535 41.9884C46.1034 41.3841 44.9128 41.067 43.7013 41.0689L43.7199 41.0733ZM74.2286 36.1622C73.0229 36.1638 71.8391 36.4819 70.7951 37.085C70.012 37.5339 69.3258 38.134 68.7765 38.8502C68.2272 39.5664 67.8254 40.3843 67.5949 41.2569C67.3589 42.1288 67.298 43.0392 67.4161 43.9347C67.5342 44.8301 67.8294 45.6933 68.2833 46.4742C68.8892 47.5188 69.7588 48.386 70.8048 48.9893C71.8509 49.5926 73.0367 49.9109 74.2443 49.9122C75.4479 49.9108 76.6297 49.5933 77.672 48.9913C79.2499 48.0781 80.4009 46.5764 80.8732 44.8155C81.3454 43.0546 81.1008 41.1784 80.1915 39.5982C79.5833 38.5492 78.7089 37.679 77.6574 37.0753C76.6058 36.4715 75.4139 36.1556 74.2013 36.1593L74.2286 36.1622ZM58.0109 32.8233C56.8057 32.8245 55.6224 33.1427 54.5792 33.7462C53.0021 34.6593 51.8509 36.1607 51.379 37.921C50.9072 39.6813 51.1526 41.5568 52.0617 43.1363C52.666 44.1796 53.5334 45.0457 54.5773 45.649C55.6212 46.2523 56.8052 46.5716 58.0109 46.5743H58.0216C59.2266 46.573 60.4098 46.2557 61.4542 45.6549C62.237 45.2049 62.9226 44.6044 63.4718 43.8878C64.0211 43.1712 64.4233 42.3529 64.6544 41.4801C64.8912 40.6086 64.9527 39.6987 64.8351 38.8033C64.7175 37.9079 64.4226 37.045 63.9689 36.2642C63.3633 35.2198 62.494 34.3526 61.4484 33.7491C60.4027 33.1456 59.2172 32.8271 58.0099 32.8253L58.0109 32.8233Z" fill="white"/>
</g>
<defs>
<clipPath id="clip0_1_19">
<rect width="121.002" height="121" fill="white"/>
</clipPath>
</defs>
</svg>
