<svg width="36" height="36" viewBox="0 0 36 36" fill="none" xmlns="http://www.w3.org/2000/svg">
<g clip-path="url(#clip0_1_5)">
<path d="M17.5097 35.0195C15.1684 35.0242 12.8502 34.5563 10.694 33.6437C8.61335 32.7649 6.72291 31.4904 5.12786 29.8912C3.52888 28.2962 2.25461 26.4061 1.37561 24.3256C0.463052 22.1693 -0.0048051 19.851 3.72071e-05 17.5095C-0.00468669 15.1682 0.463167 12.85 1.37561 10.6937C2.25469 8.61325 3.52905 6.72314 5.12814 5.12815C6.72317 3.52886 8.61361 2.25432 10.6943 1.37543C12.8505 0.46307 15.1685 -0.00487517 17.5097 -0.000456394C19.8511 -0.00493793 22.1692 0.463009 24.3255 1.37543C26.4061 2.25417 28.2964 3.52863 29.8914 5.12787C31.4905 6.72283 32.7648 8.61296 33.6439 10.6934C34.5564 12.8498 35.0242 15.1681 35.0195 17.5095C35.024 19.8507 34.5562 22.1687 33.6439 24.3248C32.7648 26.4053 31.4903 28.2954 29.8911 29.8904C28.296 31.4894 26.4057 32.7639 24.3252 33.6428C22.1691 34.5555 19.8511 35.0237 17.5097 35.0195ZM17.9685 15.7368C17.8211 15.7364 17.6741 15.75 17.5292 15.7774C17.4398 15.7935 17.3517 15.8169 17.2661 15.8476C17.0748 15.9273 16.8898 16.0217 16.713 16.1298L16.7076 16.1328C16.5235 16.232 16.3491 16.3482 16.1867 16.48C16.1177 16.539 16.0536 16.6034 15.9951 16.6728C15.6297 17.1383 15.3949 17.6928 15.3145 18.2792C15.2552 18.6013 15.1988 18.9115 15.1441 19.2113L15.1212 19.3369C14.9962 20.0232 14.8896 20.6014 14.7634 21.2717C14.7404 21.3574 14.717 21.4442 14.6933 21.5322C14.3257 22.8829 13.9098 24.4143 14.864 25.6174C15.3418 26.105 15.991 26.3868 16.6734 26.4032C16.9176 26.4024 17.16 26.3641 17.3925 26.2897C17.4693 26.2621 17.5433 26.2269 17.6132 26.1847C17.974 25.9543 18.3217 25.704 18.655 25.4353C19.4116 24.8323 20.207 24.28 21.0364 23.7818L21.1611 23.7106C22.0142 23.237 22.8974 22.8199 23.8051 22.4621H23.8082C24.2803 22.297 24.7321 22.0784 25.1544 21.8106C25.4867 21.491 25.7258 21.0871 25.846 20.642C25.9662 20.1969 25.9632 19.7274 25.837 19.2839C25.2746 17.8458 23.7405 17.4406 22.3872 17.0843L22.1268 17.0155C21.7769 16.8913 21.4472 16.7735 21.0834 16.643C20.508 16.4369 19.9133 16.2239 19.2601 15.9964C18.8468 15.8395 18.4101 15.7535 17.9682 15.7421L17.9685 15.7368ZM11.1443 16.4352C10.7954 16.4357 10.4529 16.5276 10.1508 16.702C9.92433 16.8324 9.72585 17.0062 9.5669 17.2136C9.40794 17.421 9.2916 17.6578 9.22463 17.9103C9.15635 18.1626 9.13873 18.426 9.17291 18.685C9.20709 18.9441 9.29224 19.1938 9.4236 19.4198C9.59893 19.7221 9.85069 19.9731 10.1534 20.1478C10.456 20.3226 10.7993 20.415 11.1488 20.4156C11.4973 20.4145 11.8393 20.3223 12.1411 20.1483C12.5978 19.884 12.931 19.4493 13.0676 18.9397C13.2042 18.43 13.133 17.887 12.8698 17.4297C12.6945 17.1276 12.4431 16.8767 12.1406 16.7022C11.838 16.5276 11.495 16.4355 11.1457 16.435L11.1443 16.4352ZM12.6533 11.8873C12.3045 11.8877 11.9621 11.9797 11.6601 12.1541C11.4335 12.2842 11.2349 12.4579 11.0759 12.6653C10.9169 12.8726 10.8007 13.1095 10.7339 13.3621C10.6656 13.6144 10.648 13.8776 10.6822 14.1367C10.7163 14.3958 10.8018 14.6455 10.9331 14.8714C11.1084 15.1737 11.3599 15.4248 11.6626 15.5995C11.9653 15.7741 12.3086 15.8664 12.6581 15.8668C13.0068 15.8667 13.3493 15.7747 13.6512 15.6002C14.1078 15.3359 14.441 14.9013 14.5774 14.3918C14.7139 13.8822 14.6424 13.3394 14.379 12.8823C14.2033 12.5789 13.9509 12.327 13.647 12.1521C13.3431 11.9773 12.9985 11.8855 12.6479 11.886L12.6533 11.8873ZM21.483 10.4659C21.134 10.4664 20.7914 10.5584 20.4893 10.733C20.2626 10.8629 20.0641 11.0366 19.9051 11.2439C19.7461 11.4512 19.6298 11.6879 19.5631 11.9404C19.4948 12.1928 19.4772 12.4563 19.5114 12.7154C19.5455 12.9746 19.631 13.2244 19.7623 13.4504C19.9377 13.7528 20.1894 14.0038 20.4921 14.1784C20.7948 14.353 21.138 14.4451 21.4875 14.4455C21.8359 14.4451 22.1779 14.3532 22.4796 14.1789C22.9363 13.9147 23.2694 13.48 23.406 12.9704C23.5427 12.4607 23.4719 11.9177 23.2088 11.4604C23.0327 11.1568 22.7797 10.9049 22.4753 10.7302C22.171 10.5554 21.826 10.464 21.4751 10.4651L21.483 10.4659ZM16.7893 9.49958C16.4405 9.49993 16.0981 9.59202 15.7961 9.76667C15.3397 10.0309 15.0065 10.4655 14.87 10.9749C14.7334 11.4844 14.8044 12.0272 15.0675 12.4844C15.2424 12.7863 15.4935 13.037 15.7956 13.2116C16.0977 13.3862 16.4404 13.4786 16.7893 13.4794H16.7924C17.1412 13.479 17.4836 13.3872 17.7859 13.2133C18.0124 13.0831 18.2108 12.9093 18.3698 12.7019C18.5288 12.4945 18.6452 12.2576 18.7121 12.005C18.7806 11.7528 18.7984 11.4895 18.7644 11.2303C18.7303 10.9712 18.645 10.7214 18.5137 10.4955C18.3384 10.1932 18.0868 9.94218 17.7842 9.76752C17.4815 9.59286 17.1385 9.50066 16.789 9.50014L16.7893 9.49958Z" fill="white"/>
</g>
<defs>
<clipPath id="clip0_1_5">
<rect width="35.02" height="35.02" fill="white"/>
</clipPath>
</defs>
</svg>
